<?xml version="1.0" encoding="utf-8" ?>
<svg baseProfile="tiny" height="1024" version="1.2" width="1024" xmlns="http://www.w3.org/2000/svg" xmlns:ev="http://www.w3.org/2001/xml-events" xmlns:xlink="http://www.w3.org/1999/xlink"><defs /><polygon fill="black" points="822,636 821,637 819,637 818,638 816,638 815,639 814,639 813,640 812,640 810,642 809,642 804,647 804,648 803,649 803,650 802,651 802,652 801,653 801,654 800,655 800,659 799,660 799,670 800,671 800,674 801,675 801,677 802,678 802,679 803,680 803,681 806,684 806,685 808,687 809,687 812,690 813,690 814,691 815,691 816,692 818,692 819,693 825,693 826,694 830,694 831,693 836,693 837,692 839,692 840,691 842,691 844,689 845,689 846,688 847,688 851,684 851,683 854,680 854,679 855,678 855,676 856,675 856,673 857,672 857,658 856,657 856,654 855,653 855,652 854,651 854,650 853,649 853,648 850,645 850,644 849,644 845,640 844,640 843,639 842,639 841,638 839,638 838,637 836,637 835,636" /><polygon fill="black" points="718,636 717,637 715,637 714,638 712,638 711,639 710,639 709,640 708,640 701,647 701,648 699,650 699,651 698,652 698,654 697,655 697,659 696,660 696,669 697,670 697,674 698,675 698,677 699,678 699,679 700,680 700,681 703,684 703,685 705,687 706,687 708,689 709,689 710,690 711,690 712,691 713,691 714,692 716,692 717,693 723,693 724,694 729,694 730,693 735,693 736,692 739,692 740,691 742,691 743,690 744,690 746,688 747,688 747,687 746,686 746,685 745,684 745,683 744,682 744,681 743,680 743,678 742,679 741,679 740,680 739,680 738,681 737,681 736,682 732,682 731,683 725,683 724,682 721,682 720,681 719,681 718,680 717,680 711,674 711,672 710,671 711,670 749,670 750,669 750,657 749,656 749,653 748,652 748,651 747,650 747,648 745,646 745,645 740,640 739,640 738,639 737,639 736,638 735,638 734,637 732,637 731,636" /><polygon fill="black" points="618,636 617,637 614,637 613,638 612,638 611,639 610,639 609,640 608,640 605,643 604,642 604,638 592,638 592,714 605,714 605,689 606,688 608,690 609,690 610,691 611,691 612,692 614,692 615,693 619,693 620,694 629,694 630,693 633,693 634,692 636,692 637,691 639,691 640,690 641,690 643,688 644,688 650,682 650,681 651,680 651,679 652,678 652,677 653,676 653,674 654,673 654,668 655,667 655,661 654,660 654,656 653,655 653,653 652,652 652,651 651,650 651,649 649,647 649,646 646,643 645,643 642,640 641,640 640,639 639,639 638,638 636,638 635,637 632,637 631,636" /><polygon fill="black" points="517,636 516,637 514,637 512,639 511,639 507,643 507,644 506,645 505,644 505,639 504,638 494,638 494,692 507,692 507,655 508,654 508,653 509,652 509,651 511,649 512,649 513,648 515,648 516,647 520,647 521,648 522,648 523,649 524,649 527,652 527,653 528,654 528,692 542,692 542,654 544,652 544,651 546,649 547,649 548,648 550,648 551,647 555,647 556,648 558,648 562,652 562,653 563,654 563,657 564,658 564,692 576,692 576,689 577,688 576,687 576,651 575,650 575,648 574,647 574,646 573,645 573,644 571,642 571,641 570,641 567,638 566,638 565,637 563,637 562,636 551,636 550,637 548,637 547,638 546,638 545,639 544,639 539,644 538,644 536,642 536,641 535,641 532,638 531,638 530,637 528,637 527,636" /><polygon fill="black" points="447,636 446,637 443,637 442,638 441,638 440,639 439,639 438,640 437,640 435,642 434,642 430,646 430,647 428,649 428,650 427,651 427,652 426,653 426,654 425,655 425,659 424,660 424,669 425,670 425,674 426,675 426,677 427,678 427,679 428,680 428,681 430,683 430,684 433,687 434,687 437,690 438,690 439,691 441,691 442,692 443,692 444,693 450,693 451,694 455,694 456,693 461,693 462,692 464,692 465,691 466,691 467,690 468,690 469,689 470,689 473,686 474,686 475,685 475,684 478,681 478,680 479,679 479,678 480,677 480,676 481,675 481,672 482,671 482,657 481,656 481,654 480,653 480,652 479,651 479,650 478,649 478,648 470,640 469,640 468,639 467,639 466,638 464,638 463,637 461,637 460,636" /><polygon fill="black" points="392,636 391,637 389,637 388,638 386,638 385,639 384,639 382,641 381,641 375,647 375,648 374,649 374,650 373,651 373,652 372,653 372,655 371,656 371,660 370,661 370,669 371,670 371,674 372,675 372,676 373,677 373,679 374,680 374,681 382,689 383,689 384,690 385,690 386,691 387,691 388,692 390,692 391,693 409,693 410,692 412,692 413,691 415,691 416,690 417,690 419,688 419,687 418,686 418,685 417,684 417,683 416,682 416,680 415,679 413,679 412,680 411,680 410,681 408,681 407,682 395,682 394,681 393,681 392,680 391,680 386,675 386,674 385,673 385,672 384,671 384,659 385,658 385,656 387,654 387,653 388,652 389,652 391,650 392,650 393,649 394,649 395,648 406,648 407,649 409,649 410,650 412,650 413,651 414,650 414,649 415,648 415,646 416,645 416,644 417,643 417,642 418,641 417,640 416,640 415,639 413,639 412,638 410,638 409,637 406,637 405,636" /><polygon fill="black" points="764,622 764,637 763,638 755,638 755,648 763,648 764,649 764,682 765,683 765,685 766,686 766,687 770,691 771,691 772,692 774,692 775,693 788,693 789,692 791,692 792,691 792,680 791,680 790,681 786,681 785,682 783,682 782,681 780,681 778,679 778,677 777,676 777,649 778,648 792,648 791,647 791,640 792,639 792,638 778,638 777,637 777,622" /><polygon fill="black" points="669,613 669,684 670,685 670,687 674,691 675,691 676,692 677,692 678,693 689,693 690,692 690,682 691,681 684,681 683,680 683,677 682,676 683,675 682,674 682,673 683,672 683,613" /><polygon fill="black" points="808,476 808,586 876,586 876,567 831,567 830,566 830,540 831,539 869,539 869,520 866,520 865,521 864,520 832,520 831,521 830,520 830,496 831,495 873,495 873,476" /><polygon fill="black" points="698,475 697,476 681,476 681,518 680,519 680,578 679,579 679,585 680,586 701,586 701,540 702,539 702,511 703,510 704,511 704,513 705,514 705,515 706,516 706,518 707,519 707,520 708,521 708,522 709,523 709,525 710,526 710,527 711,528 711,530 712,531 712,532 713,533 713,534 714,535 714,537 715,538 715,539 716,540 716,542 717,543 717,544 718,545 718,547 719,548 719,549 720,550 720,552 721,553 721,554 722,555 722,556 723,557 723,559 724,560 724,561 725,562 725,564 727,566 742,566 742,565 743,564 743,563 744,562 744,560 745,559 745,558 746,557 746,555 747,554 747,553 748,552 748,550 749,549 749,548 750,547 750,545 751,544 751,543 752,542 752,541 753,540 753,538 754,537 754,536 755,535 755,533 756,532 756,531 757,530 757,528 758,527 758,526 759,525 759,523 760,522 760,521 761,520 761,518 762,517 762,516 763,515 763,514 764,513 764,511 765,510 765,509 766,508 767,509 767,511 766,512 766,519 767,520 767,585 768,586 789,586 789,563 788,562 788,514 787,513 787,476 784,476 783,475 778,475 777,476 776,475 760,475 759,476 759,477 758,478 758,480 757,481 757,482 756,483 756,485 755,486 755,487 754,488 754,490 753,491 753,492 752,493 752,495 751,496 751,497 750,498 750,500 749,501 749,502 748,503 748,505 747,506 747,507 746,508 746,509 745,510 745,512 744,513 744,514 743,515 743,517 742,518 742,519 741,520 741,522 740,523 740,524 739,525 739,527 738,528 738,529 737,530 737,532 736,533 736,534 735,535 735,536 734,537 733,536 733,534 732,533 732,532 731,531 731,529 730,528 730,527 729,526 729,524 728,523 728,522 727,521 727,519 726,518 726,517 725,516 725,515 724,514 724,512 723,511 723,510 722,509 722,507 721,506 721,505 720,504 720,503 719,502 719,500 718,499 718,498 717,497 717,495 716,494 716,493 715,492 715,490 714,489 714,488 713,487 713,486 712,485 712,483 711,482 711,481 710,480 710,478 709,477 709,476 708,475 706,475 705,476 700,476 699,475" /><polygon fill="black" points="569,475 569,476 570,477 570,478 572,480 572,481 573,482 573,483 575,485 575,486 576,487 576,488 578,490 578,491 579,492 579,493 581,495 581,496 582,497 582,498 584,500 584,501 585,502 585,503 587,505 587,506 588,507 588,508 590,510 590,511 591,512 591,513 593,515 593,516 594,517 594,518 596,520 596,521 597,522 597,523 599,525 599,526 600,527 600,528 601,529 601,530 603,532 603,533 604,534 604,535 606,537 606,538 607,539 607,540 609,542 609,586 631,586 631,542 632,541 632,540 633,539 633,538 635,536 635,535 636,534 636,533 637,532 637,531 639,529 639,528 640,527 640,526 642,524 642,523 643,522 643,521 645,519 645,518 646,517 646,516 647,515 647,514 649,512 649,511 650,510 650,509 652,507 652,506 653,505 653,504 655,502 655,501 656,500 656,499 658,497 658,496 659,495 659,494 661,492 661,491 662,490 662,489 663,488 663,487 665,485 665,484 666,483 666,482 668,480 668,479 669,478 669,477 670,476 670,475 669,476 646,476 645,475 644,476 644,477 642,479 642,480 641,481 641,482 640,483 640,484 639,485 639,486 638,487 638,488 637,489 637,490 636,491 636,492 635,493 635,494 634,495 634,496 633,497 633,498 632,499 632,500 631,501 631,502 630,503 630,504 629,505 629,506 628,507 628,508 627,509 627,510 626,511 626,512 625,513 625,515 624,516 624,517 623,518 623,519 622,520 622,521 620,523 619,522 619,520 618,519 618,518 616,516 616,514 615,513 615,512 614,511 614,510 613,509 613,508 612,507 612,506 611,505 611,504 610,503 610,502 609,501 609,500 608,499 608,498 607,497 607,496 606,495 606,494 605,493 605,492 604,491 604,490 603,489 603,488 602,487 602,486 601,485 601,484 599,482 599,481 598,480 598,479 597,478 597,477 596,476 570,476" /><polygon fill="black" points="486,475 486,586 509,586 509,549 510,548 535,548 536,547 539,547 540,546 543,546 544,545 545,545 546,544 548,544 550,542 551,542 552,541 553,541 561,533 561,532 563,530 563,529 564,528 564,527 565,526 565,525 566,524 566,521 567,520 567,515 568,514 568,509 567,508 567,501 566,500 566,498 565,497 565,495 564,494 564,493 562,491 562,490 558,486 558,485 557,485 553,481 552,481 551,480 550,480 549,479 548,479 547,478 546,478 545,477 543,477 542,476 538,476 537,475" /><polygon fill="black" points="203,458 201,460 201,461 200,462 200,590 201,591 205,591 206,592 212,592 213,593 220,593 221,594 234,594 235,595 245,595 245,461 244,460 244,459 243,459 242,458" /><polygon fill="black" points="268,434 267,435 266,435 265,436 264,436 264,437 263,438 263,595 264,594 271,594 272,593 278,593 279,592 282,592 283,591 286,591 287,590 289,590 290,589 292,589 293,588 295,588 296,587 298,587 299,586 301,586 302,585 303,585 304,584 306,584 307,583 307,437 304,434" /><polygon fill="black" points="330,404 327,407 327,409 326,410 326,414 327,415 327,418 326,419 326,420 327,421 327,574 329,572 330,572 331,571 332,571 334,569 335,569 337,567 338,567 339,566 340,566 342,564 343,564 346,561 347,561 349,559 350,559 354,555 355,555 360,550 361,550 369,542 370,542 370,408 369,407 369,406 368,405 367,405 366,404" /><polygon fill="black" points="737,360 737,429 738,430 738,432 739,433 739,434 740,435 740,436 741,437 741,438 748,445 749,445 751,447 753,447 754,448 755,448 756,449 759,449 760,450 778,450 779,449 781,449 782,448 784,448 785,447 786,447 787,446 788,446 790,444 791,444 797,438 797,437 798,436 799,437 799,447 800,448 800,449 820,449 820,360 798,360 798,414 797,415 797,417 796,418 796,420 794,422 794,423 790,427 789,427 787,429 786,429 785,430 783,430 782,431 772,431 771,430 769,430 768,429 767,429 766,428 765,428 762,425 762,424 760,422 760,420 759,419 759,360" /><polygon fill="black" points="621,358 620,359 616,359 615,360 613,360 612,361 610,361 609,362 608,362 607,363 606,363 605,364 604,364 603,365 602,365 601,366 600,366 597,369 596,369 592,373 592,374 589,377 589,378 587,380 587,381 586,382 586,383 585,384 585,386 584,387 584,389 583,390 583,392 582,393 582,400 581,401 581,406 582,407 582,415 583,416 583,419 584,420 584,422 585,423 585,424 586,425 586,426 587,427 587,428 588,429 588,430 590,432 590,433 597,440 598,440 601,443 602,443 603,444 604,444 605,445 606,445 607,446 608,446 609,447 611,447 612,448 615,448 616,449 619,449 620,450 639,450 640,449 644,449 645,448 647,448 648,447 650,447 651,446 652,446 653,445 654,445 655,444 656,444 657,443 658,443 660,441 661,441 669,433 669,432 671,430 671,429 673,427 673,426 674,425 674,423 675,422 675,420 676,419 676,417 677,416 677,411 678,410 678,398 677,397 677,393 676,392 676,389 675,388 675,387 674,386 674,384 673,383 673,382 672,381 672,380 670,378 670,377 666,373 666,372 664,370 663,370 659,366 658,366 657,365 656,365 654,363 652,363 651,362 650,362 649,361 647,361 646,360 644,360 643,359 639,359 638,358" /><polygon fill="black" points="694,325 694,449 716,449 716,325" /><polygon fill="black" points="520,324 519,325 515,325 514,326 512,326 511,327 509,327 508,328 506,328 505,329 504,329 503,330 502,330 500,332 499,332 491,340 491,341 490,342 490,343 489,344 489,345 488,346 488,347 487,348 487,351 486,352 486,366 487,367 487,370 488,371 488,373 489,374 489,375 490,376 490,377 492,379 492,380 498,386 499,386 501,388 502,388 503,389 504,389 506,391 508,391 509,392 510,392 511,393 513,393 514,394 516,394 517,395 519,395 520,396 522,396 523,397 525,397 526,398 528,398 529,399 531,399 532,400 534,400 535,401 536,401 537,402 539,402 541,404 542,404 545,407 545,408 546,409 546,411 547,412 547,418 546,419 546,421 544,423 544,424 541,427 540,427 539,428 538,428 537,429 535,429 534,430 530,430 529,431 521,431 520,430 516,430 515,429 512,429 511,428 510,428 509,427 507,427 506,426 505,426 504,425 503,425 502,424 501,424 500,423 499,423 498,422 497,422 495,420 493,420 492,421 492,422 491,423 491,424 489,426 489,427 488,428 488,429 487,430 487,431 485,433 485,434 483,436 483,437 484,437 486,439 487,439 488,440 489,440 491,442 493,442 494,443 495,443 496,444 497,444 498,445 500,445 501,446 503,446 504,447 506,447 507,448 510,448 511,449 516,449 517,450 535,450 536,449 540,449 541,448 544,448 545,447 547,447 548,446 549,446 550,445 551,445 552,444 553,444 555,442 556,442 559,439 560,439 560,438 561,437 562,437 562,436 564,434 564,433 566,431 566,429 567,428 567,427 568,426 568,423 569,422 569,406 568,405 568,402 567,401 567,400 566,399 566,398 565,397 565,396 564,395 564,394 557,387 556,387 554,385 553,385 552,384 551,384 550,383 549,383 548,382 546,382 545,381 544,381 543,380 541,380 540,379 538,379 537,378 535,378 534,377 531,377 530,376 528,376 527,375 525,375 524,374 522,374 521,373 520,373 519,372 518,372 517,371 516,371 515,370 514,370 511,367 511,366 509,364 509,361 508,360 508,357 509,356 509,354 510,353 510,352 511,351 511,350 513,348 514,348 516,346 517,346 518,345 519,345 520,344 524,344 525,343 535,343 536,344 539,344 540,345 542,345 543,346 545,346 546,347 548,347 549,348 550,348 552,350 553,350 554,351 555,351 556,352 557,352 558,351 558,350 559,349 559,348 560,347 560,346 562,344 562,343 563,342 563,341 564,340 564,339 566,337 566,336 565,335 564,335 563,334 562,334 560,332 559,332 558,331 557,331 556,330 554,330 553,329 552,329 551,328 549,328 548,327 546,327 545,326 542,326 541,325 537,325 536,324" /><polygon fill="black" points="276,301 274,303 273,303 271,305 270,305 268,307 267,307 265,309 264,309 262,311 261,311 259,313 258,313 255,316 254,316 252,318 251,318 249,320 248,320 246,322 245,322 243,324 242,324 239,327 238,327 236,329 235,329 233,331 232,331 230,333 229,333 227,335 226,335 224,337 223,337 220,340 219,340 217,342 216,342 214,344 213,344 211,346 210,346 208,348 207,348 204,351 203,351 201,353 200,353 198,355 197,355 195,357 194,357 192,359 191,359 189,361 188,361 185,364 184,364 182,366 181,366 179,368 178,368 176,370 175,370 173,372 172,372 169,375 168,375 166,377 165,377 163,379 162,379 160,381 159,381 157,383 156,383 153,386 152,386 150,388 149,388 147,390 146,390 144,392 143,392 141,394 140,394 136,398 136,399 135,400 135,407 136,408 136,409 138,411 139,411 140,412 142,412 143,413 145,413 146,412 147,412 148,413 148,579 149,580 149,583 150,584 150,587 151,588 151,589 152,590 152,592 154,594 154,595 155,596 155,597 158,600 158,601 161,604 162,604 165,607 166,607 168,609 169,609 170,610 171,610 173,612 175,612 176,613 177,613 178,614 179,614 180,615 182,615 183,616 185,616 186,617 189,617 190,618 193,618 194,619 197,619 198,620 201,620 202,621 206,621 207,622 212,622 213,623 220,623 221,624 230,624 231,625 264,625 265,624 273,624 274,623 280,623 281,622 285,622 286,621 290,621 291,620 294,620 295,619 298,619 299,618 302,618 303,617 305,617 306,616 308,616 309,615 311,615 312,614 314,614 315,613 316,613 317,612 319,612 320,611 321,611 322,610 324,610 325,609 326,609 327,608 328,608 329,607 330,607 331,606 332,606 333,605 334,605 335,604 336,604 337,603 338,603 339,602 340,602 342,600 343,600 344,599 345,599 347,597 348,597 350,595 351,595 352,594 353,594 356,591 357,591 359,589 360,589 363,586 364,586 368,582 369,582 373,578 374,578 397,555 397,554 402,549 402,548 406,544 406,543 410,539 410,538 412,536 412,535 415,532 415,531 417,529 418,530 418,534 419,535 419,537 420,538 420,539 422,541 424,541 425,542 428,542 429,541 430,541 433,538 433,489 429,485 423,485 422,486 421,486 420,487 419,487 418,488 417,488 416,489 415,489 414,490 413,490 412,491 411,491 410,492 409,492 408,493 407,493 406,494 405,494 404,495 403,495 402,496 401,496 400,497 399,497 398,498 397,498 396,499 395,499 394,500 393,500 391,502 390,502 389,503 388,503 387,504 386,504 386,505 384,507 384,514 388,518 395,518 396,517 398,517 399,516 401,516 402,517 399,520 399,521 397,523 397,524 394,527 394,528 391,531 391,532 387,536 387,537 381,543 381,544 364,561 363,561 357,567 356,567 352,571 351,571 348,574 347,574 345,576 344,576 342,578 341,578 339,580 338,580 337,581 336,581 334,583 333,583 332,584 331,584 329,586 328,586 327,587 326,587 325,588 324,588 323,589 322,589 321,590 320,590 319,591 317,591 316,592 315,592 314,593 312,593 311,594 310,594 309,595 307,595 306,596 304,596 303,597 301,597 300,598 298,598 297,599 294,599 293,600 290,600 289,601 286,601 285,602 280,602 279,603 274,603 273,604 266,604 265,605 228,605 227,604 220,604 219,603 213,603 212,602 208,602 207,601 203,601 202,600 199,600 198,599 196,599 195,598 192,598 191,597 189,597 188,596 186,596 185,595 184,595 183,594 181,594 180,593 179,593 177,591 176,591 170,585 170,584 169,583 169,581 168,580 168,576 167,575 167,400 169,398 170,398 172,396 173,396 175,394 176,394 178,392 179,392 182,389 183,389 185,387 186,387 188,385 189,385 191,383 192,383 194,381 195,381 198,378 199,378 201,376 202,376 204,374 205,374 207,372 208,372 211,369 212,369 214,367 215,367 217,365 218,365 220,363 221,363 223,361 224,361 227,358 228,358 230,356 231,356 233,354 234,354 236,352 237,352 239,350 240,350 243,347 244,347 246,345 247,345 249,343 250,343 252,341 253,341 255,339 256,339 259,336 260,336 262,334 263,334 265,332 266,332 268,330 269,330 271,328 272,328 275,325 276,325 278,323 279,323 280,322 282,322 284,324 285,324 287,326 288,326 290,328 291,328 294,331 295,331 297,333 298,333 300,335 301,335 303,337 304,337 307,340 308,340 310,342 311,342 313,344 314,344 316,346 317,346 320,349 321,349 323,351 324,351 326,353 327,353 329,355 330,355 332,357 333,357 336,360 337,360 339,362 340,362 342,364 343,364 345,366 346,366 349,369 350,369 352,371 353,371 356,374 357,374 359,376 360,376 362,378 363,378 365,380 366,380 368,382 369,382 372,385 373,385 375,387 376,387 378,389 379,389 381,391 382,391 384,393 385,393 388,396 389,396 391,398 392,398 394,400 394,485 396,485 397,484 398,484 399,483 400,483 401,482 402,482 403,481 404,481 405,480 406,480 407,479 408,479 409,478 410,478 411,477 412,477 413,476 414,476 414,413 415,412 416,413 417,413 418,412 421,412 422,411 423,411 425,409 425,408 426,407 426,405 427,404 427,403 426,402 426,399 421,394 420,394 418,392 417,392 415,390 414,390 412,388 411,388 408,385 407,385 405,383 404,383 402,381 401,381 399,379 398,379 396,377 395,377 392,374 391,374 389,372 388,372 386,370 385,370 382,367 381,367 379,365 378,365 376,363 375,363 373,361 372,361 370,359 369,359 366,356 365,356 363,354 362,354 360,352 359,352 357,350 356,350 353,347 352,347 350,345 349,345 347,343 346,343 344,341 343,341 341,339 340,339 338,337 337,337 334,334 333,334 331,332 330,332 328,330 327,330 325,328 324,328 322,326 321,326 318,323 317,323 315,321 314,321 312,319 311,319 308,316 307,316 305,314 304,314 302,312 301,312 299,310 298,310 296,308 295,308 293,306 292,306 289,303 288,303 287,302 286,302 285,301" /></svg>